<svg xmlns="http://www.w3.org/2000/svg" viewBox="0 0 245.059 245.059">
    <g fill="#7b8287">
        <path d="M217.774 121.224l-95.252 84.224-95.22-84.224c-6.229-6.229-16.368-6.229-22.597 0s-6.229 16.368 0 22.566l106.312 94.044c3.178 3.21 7.342 4.704 11.505 4.64 4.164.095 8.327-1.398 11.505-4.545l106.344-94.044c6.198-6.229 6.198-16.4 0-22.597-6.261-6.261-16.4-6.293-22.597-.064z"/>
        <path d="M110.984 123.894c3.178 3.178 7.342 4.704 11.505 4.64 4.164.064 8.359-1.462 11.505-4.64L240.307 29.85c6.325-6.229 6.325-16.336.064-22.597-6.229-6.229-16.4-6.229-22.597 0l-95.252 84.224L27.301 7.252c-6.261-6.229-16.4-6.229-22.629 0s-6.229 16.368 0 22.597l106.312 94.045z"/>
    </g>
</svg>